<svg width="25" height="25" viewBox="0 0 25 25" fill="none" xmlns="http://www.w3.org/2000/svg">
    <path fill-rule="evenodd" clip-rule="evenodd" d="M3.75 12.5C3.75 7.66751 7.66751 3.75 12.5 3.75C17.3325 3.75 21.25 7.66751 21.25 12.5C21.25 17.3325 17.3325 21.25 12.5 21.25C7.66751 21.25 3.75 17.3325 3.75 12.5ZM13.5 8.5C13.5 9.05228 13.0523 9.5 12.5 9.5C11.9477 9.5 11.5 9.05228 11.5 8.5C11.5 7.94772 11.9477 7.5 12.5 7.5C13.0523 7.5 13.5 7.94772 13.5 8.5ZM12.5 11.25C12.9142 11.25 13.25 11.5858 13.25 12V17C13.25 17.4142 12.9142 17.75 12.5 17.75C12.0858 17.75 11.75 17.4142 11.75 17V12C11.75 11.5858 12.0858 11.25 12.5 11.25Z" fill="#929292"/>
</svg>
