<svg width="17" height="16" viewBox="0 0 17 16" fill="none" xmlns="http://www.w3.org/2000/svg">
    <path d="M9.49967 1.33337C9.49967 0.781089 9.05196 0.333374 8.49967 0.333374C7.94739 0.333374 7.49967 0.781089 7.49967 1.33337V7.00004H1.83301C1.28072 7.00004 0.833008 7.44775 0.833008 8.00004C0.833008 8.55232 1.28072 9.00004 1.83301 9.00004H7.49967V14.6667C7.49967 15.219 7.94739 15.6667 8.49967 15.6667C9.05196 15.6667 9.49967 15.219 9.49967 14.6667V9.00004H15.1663C15.7186 9.00004 16.1663 8.55233 16.1663 8.00004C16.1663 7.44776 15.7186 7.00004 15.1663 7.00004H9.49967V1.33337Z" fill="#B5B5B5"/>
</svg>
