<svg width="24" height="24" viewBox="0 0 24 24" fill="none" xmlns="http://www.w3.org/2000/svg">
    <path d="M9.37539 20.3998C9.52373 20.5323 9.74861 20.388 9.69293 20.197L7.17345 11.5589C7.12654 11.398 6.98433 11.2835 6.81722 11.2713C6.40948 11.2413 6.00193 11.2078 5.59462 11.1708L2.2242 10.8644C2.06684 10.8501 1.95609 11.0151 2.03058 11.1545C3.85365 14.5643 6.47885 17.8133 9.37539 20.3998Z" fill="black"/>
    <path d="M11.8472 22.2259C11.8675 22.2956 11.9274 22.348 12 22.348C12.0726 22.348 12.1326 22.2956 12.1529 22.2259L15.2368 11.6525C15.2752 11.5208 15.1725 11.3903 15.0354 11.3962C13.0128 11.4831 10.9873 11.4831 8.96468 11.3962C8.82754 11.3903 8.72485 11.5208 8.76328 11.6525L11.8472 22.2259Z" fill="black"/>
    <path d="M14.3071 20.197C14.2515 20.388 14.4763 20.5323 14.6247 20.3998C17.5212 17.8133 20.1464 14.5643 21.9695 11.1545C22.044 11.0151 21.9332 10.8501 21.7759 10.8644L18.4054 11.1708C17.9981 11.2078 17.5906 11.2413 17.1828 11.2713C17.0157 11.2835 16.8735 11.398 16.8266 11.5589L14.3071 20.197Z" fill="black"/>
    <path d="M21.801 9.35593C21.9534 9.34207 22.0344 9.16918 21.9475 9.0432L18.7098 4.34841C18.4298 3.94243 17.9681 3.70001 17.4749 3.70001H14.9853C14.8432 3.70001 14.7464 3.84409 14.8001 3.97566L17.0569 9.49903C17.1225 9.65958 17.2841 9.75968 17.457 9.74602C17.728 9.7246 17.9988 9.70158 18.2696 9.67696L21.801 9.35593Z" fill="black"/>
    <path d="M13.1651 3.94617C13.103 3.79711 12.9573 3.70001 12.7959 3.70001H11.2042C11.0427 3.70001 10.8971 3.79711 10.835 3.94617L8.47742 9.60429C8.42425 9.7319 8.5135 9.87367 8.65158 9.88036C10.8826 9.98836 13.1175 9.98836 15.3485 9.88035C15.4866 9.87367 15.5758 9.7319 15.5226 9.60429L13.1651 3.94617Z" fill="black"/>
    <path d="M9.19992 3.97566C9.25367 3.84409 9.1569 3.70001 9.01477 3.70001H6.52513C6.03196 3.70001 5.57029 3.94243 5.29031 4.34841L2.05252 9.0432C1.96564 9.16918 2.04666 9.34207 2.19906 9.35593L5.73042 9.67696C6.00121 9.70158 6.2721 9.7246 6.54309 9.74602C6.71598 9.75968 6.87758 9.65958 6.94317 9.49903L9.19992 3.97566Z" fill="black"/>
</svg>
