<svg width="48" height="48" viewBox="0 0 48 48" fill="none" xmlns="http://www.w3.org/2000/svg">
    <circle cx="24" cy="24" r="23.5" fill="#0B0C0B" stroke="#A8B0AF"/>
    <path d="M33.6846 30.3869C33.3216 31.2254 32.892 31.9972 32.3943 32.7068C31.7158 33.6742 31.1602 34.3438 30.7321 34.7157C30.0684 35.326 29.3573 35.6386 28.5958 35.6564C28.0492 35.6564 27.3899 35.5008 26.6226 35.1853C25.8527 34.8712 25.1451 34.7156 24.4982 34.7156C23.8197 34.7156 23.092 34.8712 22.3137 35.1853C21.5341 35.5008 20.9061 35.6653 20.426 35.6815C19.6958 35.7127 18.968 35.3912 18.2415 34.7156C17.7778 34.3112 17.1978 33.6179 16.503 32.6357C15.7576 31.5868 15.1447 30.3706 14.6646 28.984C14.1503 27.4863 13.8926 26.0359 13.8926 24.6318C13.8926 23.0234 14.2401 21.6362 14.9363 20.4737C15.4834 19.54 16.2112 18.8034 17.1221 18.2627C18.033 17.722 19.0173 17.4464 20.0773 17.4288C20.6573 17.4288 21.4178 17.6082 22.363 17.9608C23.3055 18.3145 23.9106 18.4939 24.176 18.4939C24.3743 18.4939 25.0466 18.2842 26.1863 17.866C27.264 17.4781 28.1736 17.3175 28.9188 17.3808C30.938 17.5437 32.455 18.3397 33.4638 19.7737C31.658 20.8679 30.7646 22.4005 30.7824 24.3665C30.7987 25.8978 31.3543 27.1722 32.4461 28.184C32.9409 28.6536 33.4935 29.0166 34.1083 29.2744C33.9749 29.661 33.8342 30.0314 33.6846 30.3869V30.3869ZM29.0536 12.1637C29.0536 13.364 28.6151 14.4847 27.741 15.522C26.6863 16.7552 25.4105 17.4677 24.0269 17.3553C24.0084 17.2044 23.9991 17.0525 23.9991 16.9005C23.9991 15.7482 24.5007 14.5151 25.3915 13.5068C25.8362 12.9963 26.4018 12.5718 27.0877 12.2332C27.7722 11.8997 28.4195 11.7152 29.0284 11.6836C29.0462 11.844 29.0536 12.0045 29.0536 12.1637V12.1637Z" fill="white"/>
</svg>
