<svg width="32" height="32" viewBox="0 0 32 32" fill="none" xmlns="http://www.w3.org/2000/svg">
    <rect width="32" height="32" rx="16" fill="#EAF5F7"/>
    <g clip-path="url(#clip0_92_9533)">
        <path d="M24.6212 19.8202C25.4212 20.2738 25.7188 21.2462 25.3208 22.1524C25.0468 22.8142 24.6447 23.4153 24.1376 23.9212C22.7566 25.302 20.7038 25.8912 18.9222 25.2266C16.1746 24.219 13.6442 22.6244 11.4932 20.4734C9.3422 18.3222 7.7872 15.8102 6.7796 13.0626C5.8768 10.6408 7.266 7.72456 9.8552 6.66216C10.6028 6.35096 11.4116 6.50016 11.9142 7.00276C12.0214 7.10942 12.1129 7.23085 12.1858 7.36336L13.3878 9.54396C13.745 10.1836 13.681 11.0096 13.1924 11.6748L11.6156 13.8784L11.5724 13.8996C12.1916 15.4672 13.05 16.8012 14.1448 17.896C15.2328 18.984 16.5554 19.837 18.1042 20.453L18.1254 20.4098L20.3302 18.8124C20.9928 18.3458 21.8214 18.26 22.461 18.6172L24.6212 19.8202Z" fill="#309EAD"/>
    </g>
    <defs>
        <clipPath id="clip0_92_9533">
            <rect width="20" height="20" fill="white" transform="translate(6 6)"/>
        </clipPath>
    </defs>
</svg>
