<svg width="20" height="20" viewBox="0 0 20 20" fill="none" xmlns="http://www.w3.org/2000/svg">
    <path d="M4.39035 4C4.38993 4 4.38946 4 4.38904 4C4.24133 4 4.1024 4.05758 3.99749 4.16222C3.89143 4.26802 3.83301 4.4089 3.83301 4.55887V12.939C3.83301 13.2464 4.08399 13.497 4.39256 13.4978C5.6934 13.5009 7.87283 13.772 9.37634 15.3454V6.57529C9.37634 6.47112 9.34973 6.37326 9.29951 6.29228C8.0655 4.30499 5.69414 4.00305 4.39035 4Z" fill="white"/>
    <path d="M15.7864 12.9391V4.55887C15.7864 4.4089 15.728 4.26802 15.622 4.16222C15.517 4.05758 15.378 4 15.2305 4C15.23 4 15.2295 4 15.2291 4C13.9254 4.0031 11.554 4.30504 10.3199 6.29233C10.2697 6.37331 10.2432 6.47117 10.2432 6.57534V15.3454C11.7467 13.772 13.9261 13.5009 15.2269 13.4978C15.5355 13.497 15.7864 13.2464 15.7864 12.9391Z" fill="white"/>
    <path d="M17.0591 5.93262H16.6539V12.9391C16.6539 13.7237 16.0146 14.3635 15.2288 14.3654C14.1254 14.3681 12.3061 14.5838 11.0176 15.8033C13.246 15.2577 15.5952 15.6124 16.934 15.9175C17.1012 15.9555 17.2739 15.9162 17.4078 15.8095C17.5413 15.703 17.6179 15.5438 17.6179 15.373V6.49138C17.6179 6.18329 17.3672 5.93262 17.0591 5.93262Z" fill="white"/>
    <path d="M2.96398 12.9391V5.93262H2.55877C2.25072 5.93262 2 6.18329 2 6.49138V15.3728C2 15.5437 2.07656 15.7028 2.21002 15.8093C2.34385 15.916 2.51644 15.9555 2.68387 15.9173C4.02267 15.6122 6.3719 15.2575 8.60023 15.8031C7.3118 14.5837 5.49247 14.368 4.38908 14.3654C3.60331 14.3635 2.96398 13.7237 2.96398 12.9391Z" fill="white"/>
</svg>