<svg width="56" height="56" viewBox="0 0 56 56" fill="none" xmlns="http://www.w3.org/2000/svg">
    <g filter="url(#filter0_d_118_7253)">
        <rect x="4" width="48" height="48" rx="24" fill="#EAF5F7" shape-rendering="crispEdges"/>
        <rect x="4.5" y="0.5" width="47" height="47" rx="23.5" stroke="#309EAD" shape-rendering="crispEdges"/>
        <path d="M35.1946 14.0399C32.8396 13.1949 30.0596 14.2099 27.4996 16.8349C24.9396 14.2099 22.1596 13.1949 19.8046 14.0399C17.5396 14.8549 16.0396 17.3199 15.8846 20.4999C15.9496 24.3649 17.9196 27.59 20.1996 30.035L25.6296 24.6049C25.5371 24.5529 25.44 24.5094 25.3396 24.4749C25.2177 24.4293 25.1183 24.3381 25.0625 24.2206C25.0066 24.1031 24.9986 23.9685 25.0401 23.8452C25.0816 23.7219 25.1695 23.6195 25.2851 23.5598C25.4007 23.5 25.535 23.4875 25.6596 23.5249C26.9 24.0598 27.8941 25.0414 28.4446 26.275C28.4985 26.3923 28.5048 26.5259 28.4622 26.6478C28.4196 26.7697 28.3315 26.8703 28.2163 26.9285C28.1011 26.9868 27.9678 26.9981 27.8444 26.9602C27.721 26.9222 27.6171 26.8379 27.5546 26.725C27.4946 26.61 27.4346 26.4949 27.3746 26.3899L21.9946 31.77C23.3886 32.9835 24.8973 34.0586 26.4996 34.9799C26.8032 35.1568 27.1482 35.2499 27.4996 35.2499C27.8509 35.2499 28.196 35.1568 28.4996 34.9799C30.9596 33.5749 38.9846 28.3699 39.1146 20.4649C38.9596 17.32 37.4596 14.8549 35.1946 14.0399ZM21.8731 36.1369L19.3466 38.663C19.2254 38.782 19.0761 38.8683 18.9125 38.914C18.7489 38.9597 18.5764 38.9633 18.4111 38.9243C18.2458 38.8853 18.0931 38.805 17.9672 38.6911C17.8413 38.5771 17.7463 38.4331 17.6911 38.2724L17.1411 36.6229L16.4746 37.29C15.3496 38.449 13.5401 36.653 14.7096 35.525L15.3761 34.8584L13.7271 34.3085C13.5666 34.2531 13.4226 34.1581 13.3087 34.0322C13.1949 33.9062 13.1147 33.7535 13.0757 33.5883C13.0367 33.423 13.0402 33.2506 13.0858 33.0871C13.1314 32.9235 13.2177 32.7742 13.3366 32.653L15.8631 30.1259C16.0596 29.9284 16.3074 29.7898 16.5786 29.7257C16.8498 29.6616 17.1335 29.6747 17.3976 29.7635L19.7026 30.5319L20.1996 30.035C20.7676 30.6438 21.3668 31.2229 21.9946 31.77L21.4671 32.2975L22.2356 34.6014C22.3247 34.8656 22.3379 35.1495 22.2738 35.4208C22.2098 35.6921 22.0709 35.9405 21.8731 36.1369ZM42.8271 10.3849L42.0321 14.2309C41.9937 14.4064 41.909 14.5685 41.7869 14.7002C41.6648 14.8319 41.5096 14.9286 41.3375 14.9801C41.1655 15.0316 40.9827 15.0362 40.8083 14.9932C40.6339 14.9503 40.4741 14.8615 40.3456 14.7359L39.7511 14.1409L38.4961 15.3969C38.0104 14.71 37.3965 14.1234 36.6881 13.6694L37.9836 12.3734L37.4436 11.8334C37.3203 11.7079 37.2321 11.5523 37.1878 11.382C37.1435 11.2117 37.1447 11.0328 37.1913 10.8631C37.2378 10.6934 37.3281 10.5389 37.4531 10.4151C37.5782 10.2913 37.7335 10.2024 37.9036 10.1574L41.6006 9.21395C41.7647 9.17375 41.9363 9.17553 42.0995 9.21913C42.2628 9.26273 42.4124 9.34675 42.5346 9.46344C42.6569 9.58012 42.7477 9.72571 42.7988 9.88676C42.8499 10.0478 42.8596 10.2191 42.8271 10.3849Z" fill="#2C909D"/>
    </g>
    <defs>
        <filter id="filter0_d_118_7253" x="0" y="0" width="56" height="56" filterUnits="userSpaceOnUse" color-interpolation-filters="sRGB">
            <feFlood flood-opacity="0" result="BackgroundImageFix"/>
            <feColorMatrix in="SourceAlpha" type="matrix" values="0 0 0 0 0 0 0 0 0 0 0 0 0 0 0 0 0 0 127 0" result="hardAlpha"/>
            <feOffset dy="4"/>
            <feGaussianBlur stdDeviation="2"/>
            <feComposite in2="hardAlpha" operator="out"/>
            <feColorMatrix type="matrix" values="0 0 0 0 1 0 0 0 0 1 0 0 0 0 1 0 0 0 0.25 0"/>
            <feBlend mode="normal" in2="BackgroundImageFix" result="effect1_dropShadow_118_7253"/>
            <feBlend mode="normal" in="SourceGraphic" in2="effect1_dropShadow_118_7253" result="shape"/>
        </filter>
    </defs>
</svg>
