<svg width="56" height="56" viewBox="0 0 56 56" fill="none" xmlns="http://www.w3.org/2000/svg">
    <g filter="url(#filter0_d_118_7254)">
        <rect x="4" width="48" height="48" rx="24" fill="#EAF5F7" shape-rendering="crispEdges"/>
        <rect x="4.5" y="0.5" width="47" height="47" rx="23.5" stroke="#309EAD" shape-rendering="crispEdges"/>
        <path d="M43.5673 19.2309C43.6181 18.9519 43.6117 18.6656 43.5484 18.3892C43.4851 18.1128 43.3664 17.8522 43.1993 17.6231C43.2426 17.3844 43.2301 17.139 43.1629 16.9059C43.0957 16.6728 42.9755 16.4584 42.8118 16.2794C42.588 16.0277 42.2869 15.8575 41.9558 15.7956C40.5963 12.9176 37.9641 11.0476 34.7976 11.0476C33.5478 11.058 32.3157 11.3429 31.1881 11.882C30.0606 12.4212 29.0653 13.2014 28.2726 14.1676C28.2396 14.208 28.198 14.2406 28.1509 14.263C28.1038 14.2853 28.0523 14.2969 28.0001 14.2969C27.9479 14.2969 27.8964 14.2853 27.8493 14.263C27.8021 14.2406 27.7606 14.208 27.7276 14.1676C26.9349 13.2014 25.9395 12.4212 24.812 11.882C23.6845 11.3429 22.4523 11.058 21.2026 11.0476C18.0346 11.0476 15.4026 12.9181 14.0441 15.7959C13.7131 15.8576 13.412 16.0277 13.1883 16.2794C13.0245 16.4583 12.9042 16.6727 12.8369 16.9058C12.7695 17.1389 12.7569 17.3844 12.8001 17.6231C12.633 17.8522 12.5143 18.1128 12.451 18.3892C12.3878 18.6656 12.3813 18.9519 12.4321 19.2309C12.2057 19.9013 12.2402 20.6324 12.5286 21.2786C12.5448 21.9739 12.8973 22.7304 13.4688 23.5054C13.7276 24.5231 14.0735 25.5167 14.5026 26.4751C14.4639 26.5006 14.4269 26.5286 14.3918 26.5589C14.2417 26.6904 14.1342 26.8636 14.0829 27.0565C14.0316 27.2494 14.0389 27.4531 14.1038 27.6419C14.9136 30.0134 16.4421 31.6531 18.6463 32.5169C18.9243 32.6259 19.2093 32.7181 19.4988 32.7999C23.1988 35.7769 26.2293 36.6521 27.4626 36.8999C27.6397 36.9345 27.8197 36.9521 28.0001 36.9524C28.1805 36.9524 28.3605 36.9348 28.5376 36.8999C29.7746 36.6499 32.8048 35.7764 36.5053 32.7976C36.7926 32.7176 37.0758 32.6236 37.3538 32.5159C39.5581 31.6531 41.0866 30.0134 41.8963 27.6409C41.9613 27.4521 41.9686 27.2484 41.9173 27.0555C41.866 26.8626 41.7584 26.6894 41.6083 26.5579C41.574 26.5283 41.5379 26.501 41.5001 26.4761C41.9244 25.5202 42.2663 24.5297 42.5221 23.5156C43.0986 22.7366 43.4543 21.9761 43.4721 21.2774C43.7598 20.6314 43.7938 19.9008 43.5673 19.2309ZM13.8176 22.6846C13.9349 22.7499 14.0576 22.805 14.1843 22.8494C14.2786 22.8813 14.3816 22.8745 14.4708 22.8304C14.56 22.7864 14.628 22.7087 14.66 22.6145C14.6919 22.5203 14.6851 22.4172 14.641 22.328C14.597 22.2388 14.5193 22.1708 14.4251 22.1389C13.9045 21.9352 13.4813 21.5405 13.2418 21.0354C13.1388 20.8214 13.0734 20.5913 13.0483 20.3551C13.5116 20.8151 14.0633 21.1766 14.6701 21.4176C14.716 21.4375 14.7655 21.448 14.8156 21.4485C14.8656 21.449 14.9153 21.4394 14.9616 21.4204C15.0079 21.4014 15.0499 21.3733 15.0852 21.3377C15.1205 21.3022 15.1483 21.26 15.167 21.2135C15.1857 21.1671 15.1949 21.1174 15.1941 21.0673C15.1932 21.0173 15.1824 20.9679 15.1622 20.9221C15.142 20.8763 15.1128 20.835 15.0764 20.8006C15.0399 20.7663 14.997 20.7396 14.9501 20.7221C14.2251 20.4306 13.3833 19.8689 13.1846 19.1661C13.1174 18.922 13.1314 18.6626 13.2246 18.4271C13.7289 18.9688 14.346 19.3932 15.0323 19.6704C15.1401 19.7216 15.2476 19.7724 15.3546 19.8256C15.4437 19.8698 15.5467 19.8768 15.641 19.8451C15.7353 19.8134 15.8131 19.7455 15.8573 19.6564C15.9016 19.5672 15.9086 19.4642 15.8768 19.3699C15.8451 19.2756 15.7772 19.1978 15.6881 19.1536C15.5771 19.0986 15.4653 19.0456 15.3533 18.9926C14.7357 18.7505 14.1824 18.3687 13.7368 17.8771C13.5975 17.7289 13.5205 17.5328 13.5217 17.3294C13.5228 17.1259 13.6021 16.9307 13.7431 16.7841C13.8444 16.653 13.9913 16.5647 14.1546 16.5367C14.3179 16.5086 14.4858 16.5428 14.6251 16.6326C15.2181 17.0464 16.7173 17.8974 17.6593 18.0866C17.9166 18.1568 18.1895 18.1438 18.4389 18.0495C18.6884 17.9552 18.9016 17.7844 19.0481 17.5616C19.6313 16.7956 19.6921 15.0311 19.5948 14.2566C19.5073 13.5591 19.8923 13.2381 20.2486 13.1751C20.3398 13.1563 20.4339 13.1561 20.5252 13.1745C20.6165 13.1929 20.7031 13.2296 20.7799 13.2823C20.8567 13.335 20.922 13.4027 20.972 13.4813C21.022 13.5599 21.0556 13.6477 21.0708 13.7396C21.1443 14.0611 21.2161 14.3856 21.2883 14.7121C22.0546 18.1786 22.9228 22.1076 26.8383 25.0524C26.9821 25.1606 27.1316 25.2651 27.2841 25.3676C24.6628 26.7392 21.7171 27.3695 18.7641 27.1909C16.5786 25.6841 14.7001 24.0501 13.8176 22.6846ZM41.1863 27.4001C40.4513 29.5529 39.0698 31.0394 37.0803 31.8181C34.7828 32.7181 32.0143 32.5931 29.4096 32.0291C30.9419 31.5316 32.4281 30.9021 33.8516 30.1476C34.9266 29.5671 36.2201 28.7961 37.5066 27.9226C38.6587 27.8529 39.7877 27.5697 40.8363 27.0874C40.8805 27.0639 40.9309 27.0547 40.9805 27.0611C41.0302 27.0675 41.0766 27.0892 41.1133 27.1231C41.1526 27.1561 41.1807 27.2004 41.1938 27.25C41.2068 27.2996 41.2042 27.352 41.1863 27.4001ZM42.7593 21.0356C42.5199 21.5407 42.0967 21.9354 41.5761 22.1391C41.5285 22.1541 41.4845 22.1785 41.4465 22.2107C41.4085 22.243 41.3773 22.2825 41.3547 22.327C41.3321 22.3714 41.3187 22.4199 41.3151 22.4697C41.3115 22.5194 41.3178 22.5693 41.3338 22.6166C41.3497 22.6638 41.3749 22.7074 41.4079 22.7448C41.4409 22.7822 41.481 22.8126 41.5259 22.8343C41.5708 22.856 41.6195 22.8685 41.6693 22.8712C41.7191 22.8738 41.7689 22.8665 41.8158 22.8496C41.9432 22.8049 42.0666 22.7495 42.1846 22.6839C40.8193 24.7974 37.0751 27.5529 33.4951 29.4879C30.2928 31.2186 23.6201 33.6571 18.9201 31.8179C16.9303 31.0391 15.5501 29.5526 14.8138 27.4001C14.7959 27.352 14.7933 27.2996 14.8064 27.25C14.8195 27.2004 14.8476 27.1561 14.8868 27.1231C14.9236 27.089 14.97 27.0673 15.0197 27.0609C15.0694 27.0545 15.1199 27.0637 15.1641 27.0874C18.7326 28.8501 25.4056 27.8806 29.1641 25.0531C33.0783 22.1081 33.9466 18.1791 34.7128 14.7126C34.7851 14.3861 34.8568 14.0626 34.9303 13.7401C34.9455 13.6482 34.9791 13.5603 35.029 13.4816C35.079 13.403 35.1443 13.3352 35.2211 13.2825C35.2979 13.2297 35.3846 13.193 35.4759 13.1746C35.5672 13.1561 35.6613 13.1563 35.7526 13.1751C36.1088 13.2381 36.4938 13.5591 36.4063 14.2566C36.3091 15.0316 36.3698 16.7956 36.9533 17.5616C37.0998 17.7843 37.313 17.955 37.5623 18.0493C37.8116 18.1436 38.0844 18.1566 38.3416 18.0866C39.2838 17.8974 40.7831 17.0464 41.3761 16.6326C41.5153 16.5433 41.683 16.5093 41.846 16.5374C42.009 16.5654 42.1557 16.6534 42.2571 16.7841C42.3981 16.9307 42.4773 17.1259 42.4785 17.3294C42.4797 17.5328 42.4026 17.7289 42.2633 17.8771C41.8178 18.3687 41.2645 18.7505 40.6468 18.9926C40.5348 19.0456 40.4218 19.0986 40.3121 19.1536C40.268 19.1755 40.2286 19.2059 40.1962 19.243C40.1638 19.2801 40.1391 19.3232 40.1233 19.3699C40.1076 19.4166 40.1013 19.4659 40.1046 19.5151C40.1079 19.5642 40.1209 19.6122 40.1428 19.6564C40.1647 19.7005 40.1951 19.7399 40.2322 19.7722C40.2693 19.8046 40.3125 19.8294 40.3592 19.8451C40.4058 19.8608 40.4552 19.8672 40.5043 19.8638C40.5535 19.8605 40.6015 19.8475 40.6456 19.8256C40.7526 19.7724 40.8601 19.7216 40.9678 19.6704C41.654 19.3931 42.2711 18.9688 42.7756 18.4274C42.8685 18.6628 42.8825 18.922 42.8156 19.1661C42.6156 19.8689 41.7738 20.4306 41.0508 20.7221C41.0042 20.7398 40.9615 20.7666 40.9254 20.801C40.8892 20.8354 40.8603 20.8766 40.8403 20.9224C40.8202 20.9681 40.8096 21.0173 40.8088 21.0672C40.8081 21.1171 40.8173 21.1666 40.836 21.2129C40.8546 21.2592 40.8823 21.3013 40.9174 21.3367C40.9526 21.3722 40.9944 21.4002 41.0405 21.4193C41.0866 21.4384 41.1361 21.448 41.186 21.4477C41.2359 21.4475 41.2852 21.4372 41.3311 21.4176C41.937 21.1768 42.488 20.816 42.9508 20.3569C42.9262 20.5923 42.8614 20.822 42.7593 21.0356Z" fill="#2C909D"/>
    </g>
    <defs>
        <filter id="filter0_d_118_7254" x="0" y="0" width="56" height="56" filterUnits="userSpaceOnUse" color-interpolation-filters="sRGB">
            <feFlood flood-opacity="0" result="BackgroundImageFix"/>
            <feColorMatrix in="SourceAlpha" type="matrix" values="0 0 0 0 0 0 0 0 0 0 0 0 0 0 0 0 0 0 127 0" result="hardAlpha"/>
            <feOffset dy="4"/>
            <feGaussianBlur stdDeviation="2"/>
            <feComposite in2="hardAlpha" operator="out"/>
            <feColorMatrix type="matrix" values="0 0 0 0 1 0 0 0 0 1 0 0 0 0 1 0 0 0 0.25 0"/>
            <feBlend mode="normal" in2="BackgroundImageFix" result="effect1_dropShadow_118_7254"/>
            <feBlend mode="normal" in="SourceGraphic" in2="effect1_dropShadow_118_7254" result="shape"/>
        </filter>
    </defs>
</svg>
