<svg width="25" height="25" viewBox="0 0 25 25" fill="none" xmlns="http://www.w3.org/2000/svg">
    <path fill-rule="evenodd" clip-rule="evenodd" d="M7.80603 8.25828L8.14909 11.3458L7.45486 11.4013C6.48677 11.4785 5.69627 12.2063 5.53933 13.1647C5.17764 15.3736 5.17764 17.6266 5.53933 19.8355C5.69627 20.7939 6.48677 21.5217 7.45486 21.5989L8.95099 21.7184C11.3131 21.907 13.6866 21.907 16.0487 21.7184L17.5448 21.5989C18.5129 21.5217 19.3034 20.7939 19.4604 19.8355C19.822 17.6266 19.822 15.3736 19.4604 13.1647C19.3034 12.2063 18.5129 11.4785 17.5448 11.4013L16.8505 11.3458L17.1936 8.25828C17.234 7.8943 17.234 7.52696 17.1936 7.16298L17.1708 6.95809C16.9293 4.7847 15.2207 3.06504 13.0489 2.80953C12.6841 2.76661 12.3155 2.76661 11.9507 2.80953C9.77888 3.06504 8.07028 4.7847 7.82879 6.95809L7.80603 7.16298C7.76559 7.52696 7.76559 7.8943 7.80603 8.25828ZM12.8737 4.29926C12.6253 4.27004 12.3743 4.27004 12.1259 4.29926C10.6473 4.47322 9.48403 5.64402 9.31962 7.12373L9.29685 7.32863C9.26864 7.58252 9.26864 7.83875 9.29685 8.09263L9.64565 11.2318C11.5465 11.1099 13.4531 11.1099 15.3539 11.2318L15.7027 8.09263C15.7309 7.83874 15.7309 7.58252 15.7027 7.32863L15.68 7.12373C15.5156 5.64402 14.3523 4.47322 12.8737 4.29926ZM12.4998 15.0001C11.6714 15.0001 10.9998 15.6717 10.9998 16.5001C10.9998 17.3285 11.6714 18.0001 12.4998 18.0001C13.3282 18.0001 13.9998 17.3285 13.9998 16.5001C13.9998 15.6717 13.3282 15.0001 12.4998 15.0001Z" fill="#929292"/>
</svg>
