<svg width="20" height="20" viewBox="0 0 20 20" fill="none" xmlns="http://www.w3.org/2000/svg">
    <path fill-rule="evenodd" clip-rule="evenodd" d="M10.0003 2.29163C5.74313 2.29163 2.29199 5.74276 2.29199 9.99996C2.29199 14.2572 5.74313 17.7083 10.0003 17.7083C14.2575 17.7083 17.7087 14.2572 17.7087 9.99996C17.7087 5.74276 14.2575 2.29163 10.0003 2.29163ZM1.04199 9.99996C1.04199 5.05241 5.05277 1.04163 10.0003 1.04163C14.9479 1.04163 18.9587 5.05241 18.9587 9.99996C18.9587 14.9475 14.9479 18.9583 10.0003 18.9583C5.05277 18.9583 1.04199 14.9475 1.04199 9.99996ZM10.0003 6.04163C10.3455 6.04163 10.6253 6.32145 10.6253 6.66663V9.74108L12.5256 11.6414C12.7697 11.8854 12.7697 12.2812 12.5256 12.5252C12.2815 12.7693 11.8858 12.7693 11.6417 12.5252L9.55838 10.4419C9.44117 10.3247 9.37533 10.1657 9.37533 9.99996V6.66663C9.37533 6.32145 9.65515 6.04163 10.0003 6.04163Z" fill="#0D1217"/>
</svg>
