<svg width="44" height="44" viewBox="0 0 44 44" fill="none" xmlns="http://www.w3.org/2000/svg">
    <rect x="0.25" y="0.25" width="43.5" height="43.5" rx="11.75" fill="#EAF5F7"/>
    <rect x="0.25" y="0.25" width="43.5" height="43.5" rx="11.75" stroke="#309EAD" stroke-width="0.5"/>
    <path d="M26.4762 13.0031C26.6438 13.019 26.7161 13.2225 26.5971 13.3415L18.277 21.6616C18.1827 21.7558 18.1153 21.8735 18.0816 22.0024L17.0816 25.8308C17.0144 26.0884 17.0887 26.3624 17.277 26.5507C17.4652 26.739 17.7392 26.8133 17.9968 26.746L21.8253 25.746C21.9542 25.7123 22.0718 25.6449 22.1661 25.5507L30.604 17.1128C30.7224 16.9944 30.9248 17.0652 30.9422 17.2317C31.2938 20.5809 31.2739 23.9592 30.8826 27.3051C30.6598 29.2101 29.1286 30.7059 27.2302 30.9181C23.7821 31.3035 20.2174 31.3035 16.7692 30.9181C14.8708 30.7059 13.3396 29.2101 13.1168 27.3051C12.7045 23.7801 12.7045 20.219 13.1168 16.694C13.3396 14.789 14.8708 13.2932 16.7692 13.081C19.9666 12.7237 23.2643 12.6977 26.4762 13.0031Z" fill="#309EAD"/>
    <path d="M27.8231 14.2368C27.9206 14.1394 28.0787 14.1394 28.1763 14.2368L29.5907 15.6512C29.6883 15.7488 29.6883 15.9071 29.5907 16.0047L21.2973 24.2982C21.266 24.3294 21.2264 24.352 21.1837 24.3633L19.2692 24.8633C19.0846 24.9114 18.9165 24.7428 18.9644 24.5582L19.4644 22.644C19.4756 22.601 19.4981 22.5618 19.5295 22.5304L27.8231 14.2368Z" fill="#309EAD"/>
</svg>
