<svg width="48" height="48" viewBox="0 0 48 48" fill="none" xmlns="http://www.w3.org/2000/svg">
    <circle cx="24" cy="24" r="23.5" fill="#0B0C0B" stroke="#A8B0AF"/>
    <path d="M36.4287 23.6836C36.4287 17.0562 31.0561 11.6836 24.4287 11.6836C17.8013 11.6836 12.4287 17.0562 12.4287 23.6836C12.4287 29.6731 16.8169 34.6376 22.5537 35.5378V27.1523H19.5068V23.6836H22.5537V21.0399C22.5537 18.0323 24.3452 16.3711 27.0863 16.3711C28.3992 16.3711 29.7725 16.6055 29.7725 16.6055V19.5586H28.2593C26.7686 19.5586 26.3037 20.4836 26.3037 21.4326V23.6836H29.6318L29.0998 27.1523H26.3037V35.5378C32.0405 34.6376 36.4287 29.6731 36.4287 23.6836Z" fill="#1877F2"/>
    <path d="M29.0998 27.1523L29.6318 23.6836H26.3037V21.4326C26.3037 20.4836 26.7686 19.5586 28.2593 19.5586H29.7725V16.6055C29.7725 16.6055 28.3992 16.3711 27.0863 16.3711C24.3452 16.3711 22.5537 18.0323 22.5537 21.0398V23.6836H19.5068V27.1523H22.5537V35.5378C23.174 35.635 23.8009 35.6838 24.4287 35.6836C25.0666 35.6836 25.6928 35.6337 26.3037 35.5378V27.1523H29.0998Z" fill="white"/>
</svg>
