<svg width="44" height="44" viewBox="0 0 44 44" fill="none" xmlns="http://www.w3.org/2000/svg">
    <rect x="0.25" y="0.25" width="43.5" height="43.5" rx="11.75" fill="#EAF5F7"/>
    <rect x="0.25" y="0.25" width="43.5" height="43.5" rx="11.75" stroke="#309EAD" stroke-width="0.5"/>
    <path d="M31 24.81V24.03L30.71 24.53L31 24.81ZM28.5 12H14.5C13.837 12 13.2011 12.2634 12.7322 12.7322C12.2634 13.2011 12 13.837 12 14.5V24.845L14.555 22.375C15.0192 21.9206 15.6429 21.6662 16.2925 21.6662C16.9421 21.6662 17.5658 21.9206 18.03 22.375L19.22 23.52C19.3116 23.6112 19.4357 23.6625 19.565 23.6625C19.6943 23.6625 19.8184 23.6112 19.91 23.52L23.05 20.485C23.5164 20.0329 24.1405 19.7801 24.79 19.7801C25.4395 19.7801 26.0636 20.0329 26.53 20.485L27.01 20.945L28.4 18.535C28.5762 18.2309 28.8292 17.9784 29.1337 17.8029C29.4382 17.6274 29.7835 17.535 30.135 17.535C30.435 17.5334 30.7312 17.6019 31 17.735V14.5C31 13.837 30.7366 13.2011 30.2678 12.7322C29.7989 12.2634 29.163 12 28.5 12ZM16.75 19C16.305 19 15.87 18.868 15.5 18.6208C15.13 18.3736 14.8416 18.0222 14.6713 17.611C14.501 17.1999 14.4564 16.7475 14.5432 16.311C14.63 15.8746 14.8443 15.4737 15.159 15.159C15.4737 14.8443 15.8746 14.63 16.311 14.5432C16.7475 14.4564 17.1999 14.501 17.611 14.6713C18.0222 14.8416 18.3736 15.13 18.6208 15.5C18.868 15.87 19 16.305 19 16.75C19.0004 17.0456 18.9425 17.3383 18.8295 17.6115C18.7166 17.8847 18.5509 18.1329 18.3419 18.3419C18.1329 18.5509 17.8847 18.7166 17.6115 18.8295C17.3383 18.9425 17.0456 19.0004 16.75 19Z" fill="#309EAD"/>
    <path d="M25.835 21.2047L26.49 21.8397L22.68 28.4447C22.4084 28.9157 22.2685 29.451 22.275 29.9947L22.295 30.9997H14.5C13.837 30.9997 13.2011 30.7363 12.7322 30.2674C12.2634 29.7986 12 29.1627 12 28.4997V26.2347L15.25 23.0947C15.529 22.8229 15.903 22.6708 16.2925 22.6708C16.682 22.6708 17.056 22.8229 17.335 23.0947L18.52 24.2397C18.799 24.5114 19.173 24.6635 19.5625 24.6635C19.952 24.6635 20.326 24.5114 20.605 24.2397L23.75 21.2047C24.029 20.9329 24.403 20.7808 24.7925 20.7808C25.182 20.7808 25.556 20.9329 25.835 21.2047ZM31 26.1997V28.4997C31 29.1627 30.7366 29.7986 30.2678 30.2674C29.7989 30.7363 29.163 30.9997 28.5 30.9997H26.975C26.9895 30.9833 27.0013 30.9647 27.01 30.9447L30.195 25.4247L31 26.1997ZM28.35 20.6242L23.7685 28.5592L26.3685 30.0592L30.95 22.1242L28.35 20.6242ZM28.4935 24.3742C28.4267 24.4881 28.3176 24.5709 28.19 24.6047C28.0623 24.6384 27.9265 24.6203 27.8122 24.5543C27.6978 24.4883 27.6142 24.3797 27.5796 24.2523C27.545 24.1249 27.5622 23.989 27.6275 23.8742L28.3775 22.5742C28.4101 22.5169 28.4537 22.4665 28.5058 22.4261C28.5579 22.3857 28.6175 22.356 28.6812 22.3388C28.7448 22.3215 28.8112 22.317 28.8766 22.3255C28.942 22.334 29.0051 22.3553 29.0622 22.3883C29.1193 22.4213 29.1693 22.4652 29.2093 22.5176C29.2494 22.57 29.2787 22.6298 29.2955 22.6935C29.3124 22.7573 29.3165 22.8237 29.3075 22.889C29.2986 22.9544 29.2768 23.0173 29.2435 23.0742L28.4935 24.3742ZM31.45 21.2577L31.8685 20.5332C31.9341 20.4193 31.9765 20.2936 31.9935 20.1633C32.0104 20.033 32.0016 19.9007 31.9673 19.7738C31.9331 19.6469 31.8742 19.5281 31.794 19.424C31.7138 19.3199 31.6139 19.2326 31.5 19.1672L30.634 18.6672C30.4043 18.5346 30.1314 18.4986 29.8752 18.5673C29.619 18.6359 29.4006 18.8035 29.268 19.0332L28.8495 19.7582L31.45 21.2577ZM23.337 29.4657C23.2947 29.6337 23.2746 29.8065 23.277 29.9797L23.303 31.5072C23.3044 31.5935 23.3282 31.678 23.3719 31.7524C23.4157 31.8269 23.478 31.8887 23.5528 31.9319C23.6276 31.9751 23.7122 31.9982 23.7986 31.9989C23.8849 31.9997 23.97 31.9781 24.0455 31.9362L25.3815 31.1947C25.5328 31.1101 25.6724 31.0062 25.797 30.8857L23.337 29.4657Z" fill="#309EAD"/>
</svg>
