<svg width="40" height="40" viewBox="0 0 40 40" fill="none" xmlns="http://www.w3.org/2000/svg">
    <rect width="40" height="40" rx="20" fill="#309EAD"/>
    <path d="M20.2496 15.75H19.9996C19.8819 15.7452 19.7669 15.7131 19.6637 15.6562C19.5605 15.5993 19.4719 15.5192 19.405 15.4222C19.338 15.3252 19.2946 15.214 19.278 15.0973C19.2615 14.9807 19.2723 14.8617 19.3096 14.75C19.6596 13.87 19.9796 12.97 20.2396 12.09C20.4596 11.41 21.3196 9.27995 23.4796 9.27995C24.3214 9.25298 25.1396 9.56107 25.7545 10.1366C26.3694 10.7122 26.7309 11.5082 26.7596 12.35C26.7596 14.28 24.5696 15.07 23.7596 15.35C22.6144 15.6488 21.4326 15.7835 20.2496 15.75ZM23.4696 10.75C22.3196 10.75 21.7996 12.08 21.6696 12.49C21.4896 13.07 21.2996 13.65 21.0896 14.23C21.8065 14.2254 22.5196 14.1245 23.2096 13.93C23.7796 13.73 25.2096 13.19 25.2096 12.32C25.1788 11.8841 24.9804 11.4771 24.656 11.1844C24.3315 10.8916 23.9063 10.7359 23.4696 10.75Z" fill="white"/>
    <path d="M19.72 15.7498C18.5627 15.7702 17.4082 15.6288 16.29 15.3298C13.8 14.5198 13.29 13.2498 13.29 12.3298C13.2942 11.9412 13.377 11.5575 13.5334 11.2017C13.6898 10.846 13.9165 10.5256 14.2 10.2598C14.8304 9.62559 15.6859 9.26616 16.58 9.25977C18.26 9.25977 19.11 10.8298 19.74 11.9498C20.1495 12.8679 20.4839 13.8177 20.74 14.7898C20.771 14.9001 20.7763 15.016 20.7555 15.1287C20.7347 15.2414 20.6884 15.3478 20.62 15.4398C20.5538 15.5326 20.467 15.609 20.3664 15.6627C20.2658 15.7165 20.1541 15.7463 20.04 15.7498H19.72ZM16.47 10.7498C15.9952 10.7702 15.5469 10.9746 15.22 11.3198C15.0775 11.4455 14.9622 11.5991 14.8814 11.7711C14.8006 11.9431 14.7559 12.1298 14.75 12.3198C14.75 12.9298 15.49 13.5198 16.75 13.9298C17.4853 14.1198 18.2407 14.2205 19 14.2298C18.8383 13.6972 18.6412 13.1761 18.41 12.6698L19 12.3098L18.35 12.6698C17.77 11.5598 17.27 10.7698 16.5 10.7498H16.47Z" fill="white"/>
    <path d="M29.25 18.25V17C29.25 16.2707 28.9603 15.5712 28.4445 15.0555C27.9288 14.5397 27.2293 14.25 26.5 14.25H13.5C12.7707 14.25 12.0712 14.5397 11.5555 15.0555C11.0397 15.5712 10.75 16.2707 10.75 17V18.25H29.25ZM20.75 19.75V30.75H26.5C27.2293 30.75 27.9288 30.4603 28.4445 29.9445C28.9603 29.4288 29.25 28.7293 29.25 28V19.75H20.75ZM19.25 19.75H10.75V28C10.75 28.7293 11.0397 29.4288 11.5555 29.9445C12.0712 30.4603 12.7707 30.75 13.5 30.75H19.25V19.75Z" fill="white"/>
</svg>
