<svg width="48" height="48" viewBox="0 0 48 48" fill="none" xmlns="http://www.w3.org/2000/svg">
    <circle cx="24" cy="24" r="23.5" fill="#0B0C0B" stroke="#A8B0AF"/>
    <path d="M35.5649 24.4852C35.5659 23.6961 35.4992 22.9085 35.3655 22.1309H24.4463V26.5902H30.7003C30.5724 27.3024 30.3015 27.9814 29.904 28.5861C29.5066 29.1908 28.9908 29.7088 28.3878 30.1088V33.0035H32.1203C34.3058 30.9885 35.5649 28.0086 35.5649 24.4852Z" fill="#4285F4"/>
    <path d="M24.4467 35.8001C27.5713 35.8001 30.2022 34.7741 32.1207 33.0051L28.3882 30.1105C27.3494 30.8148 26.0114 31.2169 24.4467 31.2169C21.4266 31.2169 18.8633 29.181 17.9466 26.4375H14.1016V29.4206C15.0653 31.3383 16.543 32.9503 18.3698 34.0768C20.1966 35.2034 22.3005 35.8 24.4467 35.8001Z" fill="#34A853"/>
    <path d="M17.9461 26.4386C17.4615 25.0009 17.4615 23.4441 17.9461 22.0065V19.0234H14.1011C13.2904 20.6366 12.8682 22.4171 12.8682 24.2225C12.8682 26.028 13.2904 27.8084 14.1011 29.4216L17.9461 26.4386Z" fill="#FBBC04"/>
    <path d="M24.4467 17.2265C26.0979 17.1995 27.6934 17.8234 28.8884 18.9633L32.1931 15.6586C30.0976 13.6904 27.3214 12.6098 24.4467 12.6433C22.3005 12.6434 20.1966 13.24 18.3698 14.3666C16.543 15.4931 15.0653 17.1051 14.1016 19.0228L17.9466 22.0059C18.8633 19.2624 21.4266 17.2265 24.4467 17.2265Z" fill="#EA4335"/>
</svg>
