<svg width="24" height="25" viewBox="0 0 24 25" fill="none" xmlns="http://www.w3.org/2000/svg">
    <path d="M12 13.9199C10.21 13.9199 8.75 15.3799 8.75 17.1699V22.9199H15.25V17.1699C15.25 15.3799 13.79 13.9199 12 13.9199Z" fill="#B5B5B5"/>
    <path d="M21.15 7.65996L14.15 2.75996C12.86 1.85996 11.13 1.85996 9.85 2.75996L2.85 7.65996C1.85 8.35996 1.25 9.50996 1.25 10.73V19.17C1.25 21.24 2.93 22.92 5 22.92H7.25V17.17C7.25 14.55 9.38 12.42 12 12.42C14.62 12.42 16.75 14.55 16.75 17.17V22.92H19C21.07 22.92 22.75 21.24 22.75 19.17V10.73C22.75 9.50996 22.15 8.35996 21.15 7.65996Z" fill="#B5B5B5"/>
</svg>
