<svg width="56" height="56" viewBox="0 0 56 56" fill="none" xmlns="http://www.w3.org/2000/svg">
    <g filter="url(#filter0_d_118_7255)">
        <rect x="4" width="48" height="48" rx="24" fill="#EAF5F7" shape-rendering="crispEdges"/>
        <rect x="4.5" y="0.5" width="47" height="47" rx="23.5" stroke="#309EAD" shape-rendering="crispEdges"/>
        <g clip-path="url(#clip0_118_7255)">
            <path d="M28.0003 8C25.7318 8.00078 23.4894 8.48395 21.4218 9.41745C19.3543 10.3509 17.5089 11.7134 16.008 13.4145C14.5072 15.1156 13.3853 17.1164 12.7166 19.2841C12.048 21.4519 11.848 23.737 12.1298 25.9879C12.4117 28.2389 13.169 30.4042 14.3515 32.3401C15.534 34.2761 17.1146 35.9384 18.9885 37.2169C20.8625 38.4954 22.9868 39.3608 25.2207 39.7557C27.4546 40.1506 29.7469 40.066 31.9456 39.5074V33.8632C32.2235 31.1747 34.1709 29.9726 35.9772 29.9726C36.1059 29.9718 36.2346 29.9788 36.3624 29.9937H36.4572C38.2761 30.3095 39.3645 31.4421 39.8256 32.7432C40.2357 32.8809 40.6231 33.0789 40.9751 33.3305C42.6902 30.9413 43.7136 28.1256 43.9328 25.1928C44.1521 22.2599 43.5587 19.3234 42.2179 16.7057C40.8771 14.0881 38.8407 11.8906 36.3326 10.3548C33.8244 8.81901 30.9414 8.00423 28.0003 8ZM21.3856 22.2611C20.9794 22.2615 20.5823 22.1414 20.2444 21.916C19.9065 21.6906 19.6431 21.3701 19.4875 20.9949C19.3319 20.6197 19.2911 20.2069 19.3702 19.8085C19.4493 19.4101 19.6449 19.0442 19.9321 18.757C20.2193 18.4698 20.5852 18.2743 20.9836 18.1951C21.3819 18.116 21.7948 18.1568 22.17 18.3124C22.5451 18.4681 22.8657 18.7315 23.0911 19.0694C23.3165 19.4072 23.4365 19.8044 23.4361 20.2105C23.4356 20.7542 23.2193 21.2754 22.8349 21.6599C22.4505 22.0443 21.9293 22.2605 21.3856 22.2611ZM30.5961 27.8821C30.5961 27.8821 30.5772 29.1453 28.2088 29.9158C28.2088 29.9158 30.474 30.6484 30.5961 32.3095C30.6193 32.6105 30.3856 33.0189 30.2256 33.2589C29.7139 34.003 28.9591 34.5456 28.0909 34.7937C27.7118 34.9144 27.323 35.0017 26.9288 35.0547C26.6066 35.1011 26.1056 35.2211 25.7877 35.1347C25.7241 35.122 25.6649 35.0933 25.6155 35.0513C25.5662 35.0093 25.5283 34.9554 25.5056 34.8947C25.253 34.16 26.4193 34.0232 26.8614 33.8232C27.4635 33.5537 28.2719 33.1011 28.3351 32.3495C28.3178 32.1383 28.2216 31.9413 28.0656 31.7979C27.6879 31.4037 27.2328 31.0919 26.7288 30.8821C26.2909 30.6716 25.7077 30.5958 25.5372 30.0863C25.2993 29.3705 26.2782 29.3137 26.7288 29.1347C27.2888 28.9095 27.954 28.5284 28.0551 27.8716C28.0551 27.8716 28.8151 26.8779 25.7393 25.8042C25.1877 25.6105 25.3793 24.9621 25.8319 24.8274C25.8745 24.8147 25.9182 24.8063 25.9624 24.8021C26.3489 24.8104 26.7322 24.8728 27.1014 24.9874C28.0761 25.1979 29.133 25.5284 29.8909 26.2105C30.1319 26.4138 30.3214 26.6712 30.4439 26.9617C30.5665 27.2522 30.6186 27.5676 30.5961 27.8821ZM32.1224 20.5284C30.2782 20.5284 28.6319 21.2021 27.5793 22.2526C27.6978 21.1298 28.2278 20.0906 29.0671 19.3352C29.9063 18.5799 30.9954 18.162 32.1245 18.162C33.2536 18.162 34.3428 18.5799 35.182 19.3352C36.0213 20.0906 36.5513 21.1298 36.6698 22.2526C35.6088 21.2021 33.9666 20.5284 32.1224 20.5284Z" fill="#2C909D"/>
            <path d="M40.7899 36.4085C40.4173 34.539 38.7899 34.4001 38.3162 34.4001H38.2089C38.2089 34.1601 38.2089 32.2296 36.1373 31.8738H35.9794C35.4931 31.8738 34.0405 32.0443 33.832 34.0633V38.8906L38.6573 38.7748C41.0889 38.4569 40.7899 36.4085 40.7899 36.4085Z" fill="#2C909D"/>
        </g>
    </g>
    <defs>
        <filter id="filter0_d_118_7255" x="0" y="0" width="56" height="56" filterUnits="userSpaceOnUse" color-interpolation-filters="sRGB">
            <feFlood flood-opacity="0" result="BackgroundImageFix"/>
            <feColorMatrix in="SourceAlpha" type="matrix" values="0 0 0 0 0 0 0 0 0 0 0 0 0 0 0 0 0 0 127 0" result="hardAlpha"/>
            <feOffset dy="4"/>
            <feGaussianBlur stdDeviation="2"/>
            <feComposite in2="hardAlpha" operator="out"/>
            <feColorMatrix type="matrix" values="0 0 0 0 1 0 0 0 0 1 0 0 0 0 1 0 0 0 0.25 0"/>
            <feBlend mode="normal" in2="BackgroundImageFix" result="effect1_dropShadow_118_7255"/>
            <feBlend mode="normal" in="SourceGraphic" in2="effect1_dropShadow_118_7255" result="shape"/>
        </filter>
        <clipPath id="clip0_118_7255">
            <rect width="32" height="32" fill="white" transform="translate(12 8)"/>
        </clipPath>
    </defs>
</svg>
