<svg width="24" height="24" viewBox="0 0 24 24" fill="none" xmlns="http://www.w3.org/2000/svg">
    <path d="M11.9998 0C10.2984 0.000588074 8.61655 0.362965 7.06589 1.06309C5.51523 1.76321 4.13118 2.78508 3.00555 4.06089C1.87992 5.33669 1.03846 6.83728 0.536987 8.46309C0.035515 10.0889 -0.114501 11.8028 0.0968912 13.491C0.308284 15.1792 0.876251 16.8031 1.76311 18.2551C2.64997 19.7071 3.83545 20.9538 5.2409 21.9127C6.64635 22.8716 8.23963 23.5206 9.91505 23.8168C11.5905 24.113 13.3097 24.0495 14.9587 23.6305V19.3974C15.1671 17.3811 16.6277 16.4795 17.9824 16.4795C18.0789 16.4788 18.1754 16.4841 18.2713 16.4953H18.3424C19.7066 16.7321 20.5229 17.5816 20.8687 18.5574C21.1763 18.6607 21.4668 18.8092 21.7308 18.9979C23.0171 17.206 23.7847 15.0942 23.9491 12.8946C24.1136 10.6949 23.6685 8.49252 22.6629 6.52929C21.6573 4.56606 20.1301 2.91798 18.2489 1.76612C16.3678 0.614254 14.2055 0.0031698 11.9998 0ZM7.03871 10.6958C6.73409 10.6961 6.43623 10.606 6.18283 10.437C5.92942 10.268 5.73186 10.0275 5.61514 9.74618C5.49843 9.46481 5.46781 9.15514 5.52716 8.85637C5.58651 8.55759 5.73316 8.28314 5.94856 8.06774C6.16395 7.85235 6.4384 7.7057 6.73718 7.64635C7.03595 7.587 7.34562 7.61762 7.62699 7.73433C7.90835 7.85105 8.14877 8.04861 8.31781 8.30202C8.48685 8.55542 8.57691 8.85328 8.5766 9.15789C8.57618 9.56564 8.41402 9.95657 8.1257 10.2449C7.83738 10.5332 7.44645 10.6954 7.03871 10.6958ZM13.9466 14.9116C13.9466 14.9116 13.9324 15.8589 12.1561 16.4368C12.1561 16.4368 13.855 16.9863 13.9466 18.2321C13.964 18.4579 13.7887 18.7642 13.6687 18.9442C13.285 19.5022 12.7189 19.9092 12.0677 20.0953C11.7834 20.1858 11.4918 20.2513 11.1961 20.2911C10.9545 20.3258 10.5787 20.4158 10.3403 20.3511C10.2926 20.3415 10.2482 20.32 10.2112 20.2885C10.1741 20.257 10.1458 20.2166 10.1287 20.1711C9.93923 19.62 10.814 19.5174 11.1455 19.3674C11.5971 19.1653 12.2034 18.8258 12.2508 18.2621C12.2379 18.1037 12.1657 17.956 12.0487 17.8484C11.7655 17.5527 11.4241 17.3189 11.0461 17.1616C10.7177 17.0037 10.2803 16.9468 10.1524 16.5647C9.97397 16.0279 10.7082 15.9853 11.0461 15.8511C11.4661 15.6821 11.965 15.3963 12.0408 14.9037C12.0408 14.9037 12.6108 14.1584 10.304 13.3532C9.89029 13.2079 10.034 12.7216 10.3734 12.6205C10.4054 12.611 10.4382 12.6047 10.4713 12.6016C10.7612 12.6078 11.0487 12.6546 11.3255 12.7405C12.0566 12.8984 12.8492 13.1463 13.4177 13.6579C13.5984 13.8104 13.7405 14.0034 13.8325 14.2213C13.9244 14.4392 13.9635 14.6757 13.9466 14.9116ZM15.0913 9.39632C13.7082 9.39632 12.4734 9.90158 11.684 10.6895C11.7729 9.84733 12.1704 9.06791 12.7998 8.50143C13.4292 7.93494 14.2461 7.6215 15.0929 7.6215C15.9397 7.6215 16.7566 7.93494 17.386 8.50143C18.0155 9.06791 18.413 9.84733 18.5019 10.6895C17.7061 9.90158 16.4745 9.39632 15.0913 9.39632Z" fill="white"/>
    <path d="M21.592 21.3063C21.3125 19.9042 20.092 19.8 19.7367 19.8H19.6562C19.6562 19.62 19.6562 18.1721 18.1025 17.9053H17.9841C17.6193 17.9053 16.5299 18.0332 16.3735 19.5474V23.1679L19.9925 23.0811C21.8162 22.8426 21.592 21.3063 21.592 21.3063Z" fill="white"/>
</svg>
