<svg width="24" height="24" viewBox="0 0 24 24" fill="none" xmlns="http://www.w3.org/2000/svg">
    <path d="M11.9994 6.37695C9.67405 6.37695 7.78223 8.26878 7.78223 10.5942C7.78223 12.9195 9.67405 14.8114 11.9994 14.8114C14.3248 14.8114 16.2166 12.9195 16.2166 10.5942C16.2166 8.26878 14.3248 6.37695 11.9994 6.37695ZM14.4061 11.2028L11.0453 13.1432C10.5816 13.411 9.99102 13.0784 9.99102 12.5345V8.65377C9.99102 8.11452 10.5763 7.7742 11.0453 8.04505L14.4061 9.98539C14.513 10.0471 14.6017 10.1358 14.6634 10.2427C14.7251 10.3495 14.7576 10.4707 14.7576 10.5941C14.7576 10.7175 14.7251 10.8387 14.6634 10.9456C14.6017 11.0524 14.513 11.1411 14.4061 11.2028Z" fill="#B5B5B5"/>
    <path d="M11.3965 11.317L12.6487 10.594L11.3965 9.87109V11.317ZM6.44648 21.8399H17.5518C18.6017 21.8399 19.5218 21.2754 20.0257 20.4342H3.97266C4.47647 21.2754 5.39667 21.8399 6.44648 21.8399Z" fill="#B5B5B5"/>
    <path d="M20.27 2.15967H3.72911C1.70087 2.15967 0.0507812 3.80976 0.0507812 5.838V15.3502C0.0507812 17.3784 1.70087 19.0285 3.72911 19.0285H20.2699C22.2982 19.0285 23.9483 17.3784 23.9483 15.3502V5.838C23.9483 3.80976 22.2982 2.15967 20.27 2.15967ZM11.9995 16.217C8.89905 16.217 6.37661 13.6946 6.37661 10.5941C6.37661 7.49358 8.89905 4.97114 11.9995 4.97114C15.1 4.97114 17.6225 7.49358 17.6225 10.5941C17.6225 13.6946 15.1 16.217 11.9995 16.217Z" fill="#B5B5B5"/>
</svg>
