<svg width="24" height="24" viewBox="0 0 24 24" fill="none" xmlns="http://www.w3.org/2000/svg">
    <path fill-rule="evenodd" clip-rule="evenodd" d="M6.71133 3.97032C10.2299 3.65573 13.7694 3.65573 17.288 3.97032L18.8053 4.10599C20.3177 4.24121 21.5396 5.39659 21.7593 6.89902C22.2538 10.2813 22.2538 13.7176 21.7593 17.0999C21.5396 18.6024 20.3177 19.7577 18.8053 19.893L17.288 20.0286C13.7694 20.3432 10.2299 20.3432 6.71133 20.0286L5.19398 19.893C3.68162 19.7577 2.45966 18.6024 2.24001 17.0999C1.74552 13.7176 1.74552 10.2813 2.24001 6.89902C2.45966 5.39659 3.68162 4.24121 5.19398 4.10599L6.71133 3.97032ZM5.85521 6.83913C5.62278 6.71398 5.34167 6.72023 5.11504 6.85559C4.88841 6.99096 4.74963 7.2355 4.74963 7.49948V16.9995C4.74963 17.4137 5.08542 17.7495 5.49963 17.7495C5.91385 17.7495 6.24963 17.4137 6.24963 16.9995V8.75514L11.6441 11.6598C11.866 11.7794 12.1332 11.7794 12.3552 11.6598L17.7496 8.75514V16.9995C17.7496 17.4137 18.0854 17.7495 18.4996 17.7495C18.9138 17.7495 19.2496 17.4137 19.2496 16.9995V7.49948C19.2496 7.2355 19.1109 6.99096 18.8842 6.85559C18.6576 6.72023 18.3765 6.71398 18.1441 6.83913L11.9996 10.1477L5.85521 6.83913Z" fill="black"/>
</svg>
