<svg width="24" height="24" viewBox="0 0 24 24" fill="none" xmlns="http://www.w3.org/2000/svg">
    <g clip-path="url(#clip0_500_2954)">
        <path d="M8.67771 5.2989C8.65056 5.37504 8.6021 5.44177 8.5381 5.49116C8.4741 5.54054 8.39726 5.57049 8.31672 5.57745C8.23604 5.58621 8.15458 5.57083 8.08265 5.53325C8.01072 5.49566 7.95156 5.43758 7.91267 5.36635C7.22369 4.15167 5.81897 2.98934 4.1652 2.98934C4.06255 2.98934 3.95884 2.99409 3.85451 3.00338C3.30225 3.05098 2.76479 3.207 2.27288 3.46251C1.78098 3.71802 1.34427 4.068 0.987745 4.49244C0.631277 4.9169 0.361985 5.40748 0.195269 5.9361C0.0285541 6.46473 -0.0323129 7.02103 0.0161496 7.5732C0.447853 12.5083 7.52261 16.6776 9.23802 17.6191L9.22362 17.5976C9.19369 17.5554 9.16361 17.5131 9.13369 17.468C9.05948 17.3608 8.98465 17.2536 8.91045 17.1429C8.8715 17.0848 8.83271 17.0243 8.79334 16.9648C8.72922 16.8669 8.66678 16.769 8.60081 16.6692C8.55875 16.6013 8.51648 16.5312 8.47421 16.462C8.41547 16.367 8.35652 16.2719 8.29857 16.1748C8.25635 16.101 8.21159 16.0253 8.16811 15.9507C8.11322 15.8553 8.05839 15.7602 8.0044 15.6635C7.96218 15.5846 7.91985 15.5052 7.87763 15.4254C7.82598 15.3295 7.77532 15.2331 7.72564 15.1362C7.68342 15.0543 7.6412 14.9715 7.60199 14.8884C7.55417 14.7912 7.50736 14.6941 7.46139 14.5959C7.4216 14.5113 7.38365 14.427 7.34529 14.34C7.30307 14.2411 7.26084 14.1423 7.21852 14.0444C7.18259 13.9579 7.14754 13.871 7.11339 13.7838C7.07381 13.6834 7.03634 13.5822 6.99897 13.4808C6.96704 13.393 6.9357 13.3051 6.90583 13.2165C6.87151 13.1145 6.83872 13.0121 6.80745 12.9091C6.77961 12.8209 6.75315 12.7322 6.72808 12.6431C6.69884 12.5388 6.67266 12.4341 6.64649 12.329C6.62501 12.2411 6.60421 12.1529 6.58358 12.0647C6.55983 11.9579 6.54136 11.8507 6.52114 11.7433C6.50547 11.6565 6.48853 11.5695 6.47555 11.4825C6.45866 11.3722 6.44731 11.2625 6.43333 11.1523C6.42362 11.0679 6.41269 10.9834 6.40588 10.8989C6.39659 10.7832 6.39353 10.668 6.38979 10.5523C6.38731 10.4734 6.38176 10.3944 6.38176 10.3155C6.38176 10.1889 6.389 10.0596 6.39617 9.93221C6.3995 9.86587 6.3995 9.79948 6.40504 9.73372C6.42114 9.54036 6.44504 9.34778 6.47887 9.15604C6.96989 6.40412 9.59368 4.56706 12.3474 5.04721C14.1694 5.36819 15.4567 6.78242 16.0698 8.24424C16.1896 8.11457 16.3175 7.99092 16.4497 7.87091C16.492 7.83296 16.534 7.79834 16.5763 7.76166C16.6447 7.70287 16.7115 7.6425 16.7829 7.58682C16.8641 7.09653 16.8841 6.59833 16.8422 6.10314C16.6344 3.78081 14.5875 2.06392 12.2644 2.26331C10.478 2.42079 9.17554 3.90135 8.67771 5.2989Z" fill="#B5B5B5"/>
        <path d="M10.2661 17.6038C11.3096 18.9967 12.4676 20.3001 13.7281 21.5003C15.2186 20.8568 23.0525 17.2521 23.937 12.2361C24.3364 9.94061 22.806 7.75349 20.5126 7.342C19.9681 7.26043 19.4126 7.29101 18.8802 7.43186C18.3479 7.57271 17.85 7.82085 17.417 8.16107C17.1913 8.32653 16.9795 8.51013 16.7837 8.71004C16.5919 8.90581 16.4173 9.11769 16.2617 9.34335C16.2159 9.41007 16.1519 9.46221 16.0773 9.49355C16.0027 9.52488 15.9206 9.53407 15.8409 9.52004C15.7612 9.50607 15.6872 9.4695 15.6277 9.41467C15.5681 9.35985 15.5256 9.28907 15.5051 9.21077C15.132 7.77512 13.9649 6.1878 12.1972 5.87521C9.90208 5.47322 7.7148 7.00576 7.30864 9.30028C6.80194 12.1751 8.62327 15.38 10.242 17.5631C10.2509 17.5761 10.2589 17.5897 10.2661 17.6038ZM3.38637 16.6285C3.34593 16.5904 3.29866 16.5603 3.24704 16.5398C3.19616 16.5187 3.14162 16.5078 3.08652 16.5078C3.03143 16.5078 2.97688 16.5187 2.92601 16.5398C2.87363 16.5588 2.82606 16.5891 2.78666 16.6284C2.74726 16.6678 2.717 16.7154 2.69802 16.7678C2.66515 16.8446 2.65603 16.9294 2.67183 17.0115C2.68763 17.0935 2.72764 17.1689 2.78668 17.2279C2.84574 17.2871 2.92117 17.3271 3.00323 17.3429C3.08528 17.3587 3.17019 17.3496 3.24699 17.3166C3.29807 17.2951 3.34517 17.2651 3.38632 17.2279C3.44537 17.1689 3.48538 17.0935 3.50118 17.0114C3.51698 16.9294 3.50786 16.8445 3.47498 16.7677C3.45457 16.7161 3.42447 16.6688 3.38632 16.6284L3.38637 16.6285ZM22.9302 2.99546C23.0423 2.99652 23.1506 2.9524 23.2299 2.87302C23.3093 2.79365 23.3534 2.68562 23.3524 2.57326C23.3508 2.46149 23.307 2.35443 23.2299 2.2735C23.2091 2.25441 23.1865 2.23744 23.1623 2.22283C23.1407 2.20618 23.1165 2.19333 23.0906 2.18483C23.0653 2.17194 23.0381 2.16338 23.01 2.1595C22.9559 2.14672 22.8997 2.14672 22.8457 2.1595C22.8193 2.16404 22.7935 2.17269 22.7696 2.18483C22.7426 2.19414 22.717 2.20692 22.6933 2.22283C22.6713 2.2385 22.6503 2.25542 22.6302 2.2735C22.5529 2.35427 22.5092 2.46144 22.508 2.57326C22.5074 2.62885 22.5179 2.684 22.5389 2.73548C22.5599 2.78696 22.5909 2.83372 22.6302 2.87302C22.6696 2.91231 22.7164 2.94336 22.7679 2.96438C22.8194 2.9854 22.8746 2.99597 22.9302 2.99546ZM20.9414 5.40625C21.0005 5.46582 21.0759 5.50645 21.1582 5.52296C21.2404 5.53948 21.3257 5.53112 21.4032 5.49896C21.4807 5.4668 21.5468 5.41229 21.5932 5.34239C21.6396 5.27249 21.6641 5.19036 21.6636 5.10648C21.662 4.99471 21.6182 4.88765 21.5411 4.80672C21.5199 4.78983 21.4989 4.77294 21.4735 4.75605C21.4519 4.7394 21.4276 4.72655 21.4017 4.71805C21.3765 4.70516 21.3492 4.6966 21.3211 4.69272C21.2404 4.67538 21.1562 4.68426 21.0808 4.71805C21.0291 4.73851 20.9818 4.7686 20.9414 4.80672C20.8641 4.88749 20.8204 4.99466 20.8192 5.10648C20.8185 5.16207 20.8291 5.21722 20.85 5.2687C20.871 5.32018 20.9021 5.36694 20.9414 5.40625ZM6.764 22.9615C6.72356 22.9235 6.67628 22.8934 6.62467 22.8729C6.54776 22.8405 6.46299 22.8317 6.38106 22.8475C6.29913 22.8632 6.22371 22.9029 6.16431 22.9615C6.1271 23.0026 6.09713 23.0497 6.07565 23.1008C6.05402 23.1516 6.0426 23.2061 6.04203 23.2612C6.04049 23.3166 6.05201 23.3715 6.07565 23.4216C6.09728 23.4728 6.12715 23.5198 6.16431 23.5609C6.24438 23.6394 6.35203 23.6834 6.46415 23.6834C6.57628 23.6834 6.68393 23.6394 6.764 23.5609C6.80109 23.5198 6.83105 23.4727 6.85266 23.4216C6.87489 23.3711 6.88636 23.3165 6.88636 23.2612C6.88636 23.206 6.87489 23.1514 6.85266 23.1008C6.83118 23.0497 6.8012 23.0026 6.764 22.9615ZM3.0866 19.4614H2.6644V19.0392C2.6644 18.9272 2.61992 18.8198 2.54074 18.7407C2.46156 18.6615 2.35417 18.617 2.2422 18.617C2.13022 18.617 2.02283 18.6615 1.94365 18.7407C1.86447 18.8198 1.81999 18.9272 1.81999 19.0392V19.4614H1.39779C1.16442 19.4614 0.975586 19.6504 0.975586 19.8836C0.975586 20.1168 1.16442 20.3058 1.39779 20.3058H1.81999V20.728C1.81999 20.84 1.86447 20.9474 1.94365 21.0266C2.02283 21.1057 2.13022 21.1502 2.2422 21.1502C2.35417 21.1502 2.46156 21.1057 2.54074 21.0266C2.61992 20.9474 2.6644 20.84 2.6644 20.728V20.3058H3.0866C3.19858 20.3058 3.30597 20.2613 3.38515 20.1821C3.46433 20.103 3.50881 19.9956 3.50881 19.8836C3.50881 19.7716 3.46433 19.6642 3.38515 19.5851C3.30597 19.5059 3.19858 19.4614 3.0866 19.4614ZM18.7081 1.72885H19.1303V2.15106C19.1303 2.26303 19.1748 2.37042 19.254 2.4496C19.3332 2.52878 19.4406 2.57326 19.5525 2.57326C19.6645 2.57326 19.7719 2.52878 19.8511 2.4496C19.9303 2.37042 19.9747 2.26303 19.9747 2.15106V1.72885H20.3969C20.5089 1.72885 20.6163 1.68437 20.6955 1.60519C20.7747 1.52601 20.8192 1.41862 20.8192 1.30665C20.8192 1.19467 20.7747 1.08729 20.6955 1.00811C20.6163 0.928928 20.5089 0.884446 20.3969 0.884446H19.9747V0.462243C19.9747 0.350267 19.9303 0.242878 19.8511 0.1637C19.7719 0.0845211 19.6645 0.0400391 19.5525 0.0400391C19.4406 0.0400391 19.3332 0.0845211 19.254 0.1637C19.1748 0.242878 19.1303 0.350267 19.1303 0.462243V0.884446H18.7081C18.4748 0.884446 18.2859 1.07349 18.2859 1.30665C18.2859 1.53981 18.4748 1.72885 18.7081 1.72885Z" fill="#B5B5B5"/>
    </g>
    <defs>
        <clipPath id="clip0_500_2954">
            <rect width="24" height="24" fill="white"/>
        </clipPath>
    </defs>
</svg>
