<svg width="44" height="45" viewBox="0 0 44 45" fill="none" xmlns="http://www.w3.org/2000/svg">
    <rect x="0.25" y="0.75" width="43.5" height="43.5" rx="11.75" fill="#EAF5F7"/>
    <rect x="0.25" y="0.75" width="43.5" height="43.5" rx="11.75" stroke="#309EAD" stroke-width="0.5"/>
    <g clip-path="url(#clip0_134_2820)">
        <path d="M22.055 10.5H22.0164C15.5089 10.5 10.2168 15.7922 10.2168 22.2996C10.2168 24.9554 11.1235 27.5339 12.7825 29.6109L11.0656 33.6041C10.9241 33.9321 11.0785 34.3115 11.4 34.4465C11.5157 34.4979 11.6443 34.5108 11.7665 34.4915L18.0618 33.3855C19.3221 33.842 20.6468 34.0735 21.9843 34.0671C28.4918 34.0671 33.7839 28.775 33.7839 22.2675C33.7968 15.7793 28.5432 10.5064 22.055 10.5ZM18.0168 19.9268H21.4891C21.8428 19.9268 22.1322 20.2162 22.1322 20.5699C22.1322 20.9235 21.8428 21.2129 21.4891 21.2129H18.0168C17.6631 21.2129 17.3737 20.9235 17.3737 20.5699C17.3737 20.2162 17.6631 19.9268 18.0168 19.9268ZM25.9904 24.4281H18.0168C17.6631 24.4281 17.3737 24.1387 17.3737 23.785C17.3737 23.4314 17.6631 23.142 18.0168 23.142H25.9904C26.344 23.142 26.6334 23.4314 26.6334 23.785C26.6334 24.1387 26.344 24.4281 25.9904 24.4281Z" fill="#309EAD"/>
    </g>
    <defs>
        <clipPath id="clip0_134_2820">
            <rect width="24" height="24" fill="white" transform="translate(10 10.5)"/>
        </clipPath>
    </defs>
</svg>
