<svg width="20" height="20" viewBox="0 0 20 20" fill="none" xmlns="http://www.w3.org/2000/svg">
    <path d="M6.53725 4.51776V12.7996C6.05534 12.3697 5.4203 12.108 4.72518 12.108C3.22252 12.108 2 13.3305 2 14.8332C2 16.3359 3.22252 17.5584 4.72518 17.5584C6.22599 17.5584 7.44724 16.339 7.45034 14.8389H7.4504V8.1831L15.5565 6.12827V10.6012C15.0746 10.1713 14.4395 9.90954 13.7444 9.90954C12.2417 9.90954 11.0192 11.1321 11.0192 12.6347C11.0192 14.1374 12.2417 15.3599 13.7444 15.3599C15.2471 15.3599 16.4696 14.1374 16.4696 12.6347V2L6.53725 4.51776Z" fill="white"/>
</svg>