<svg width="44" height="45" viewBox="0 0 44 45" fill="none" xmlns="http://www.w3.org/2000/svg">
    <rect x="0.25" y="0.75" width="43.5" height="43.5" rx="11.75" fill="#EAF5F7"/>
    <rect x="0.25" y="0.75" width="43.5" height="43.5" rx="11.75" stroke="#309EAD" stroke-width="0.5"/>
    <path d="M29.2018 21.7581C25.391 21.7356 23.8038 16.9108 26.79 14.6259C19.8877 9.63566 9.95157 14.7151 10.0002 23.2996C10.0001 29.1651 14.7721 33.9371 20.6377 33.9371C27.2315 34.0096 32.3949 27.7342 31.083 21.2838C30.5226 21.5862 29.8819 21.7581 29.2018 21.7581ZM20.6377 28.3808C17.8359 28.3808 15.5564 26.1013 15.5564 23.2995C15.8355 16.5584 25.441 16.5604 25.7191 23.2995C25.7191 26.1013 23.4396 28.3808 20.6377 28.3808Z" fill="#309EAD"/>
    <path d="M20.6375 19.6258C18.6118 19.6258 16.9639 21.2738 16.9639 23.2995C17.1656 28.1731 24.1102 28.1716 24.3112 23.2994C24.3112 21.2738 22.6632 19.6258 20.6375 19.6258ZM20.6375 24.0033C20.2498 24.0033 19.9337 23.6872 19.9337 23.2995C19.9734 22.3657 21.3017 22.366 21.3413 23.2995C21.3413 23.6871 21.0252 24.0033 20.6375 24.0033ZM33.4624 11.6262L31.2324 11.0825C31.1288 11.0573 31.0209 11.0559 30.9167 11.0785C30.8125 11.101 30.7148 11.147 30.6309 11.2128C30.5471 11.2787 30.4793 11.3627 30.4327 11.4586C30.3861 11.5545 30.3619 11.6597 30.3619 11.7663V15.4934C28.6906 14.6201 26.6154 15.8886 26.6338 17.7828C26.7748 21.1889 31.6285 21.1885 31.7692 17.7828L31.7695 12.6624L33.129 12.9938C33.5066 13.0859 33.8875 12.8544 33.9795 12.4767C34.0716 12.0991 33.8401 11.7183 33.4624 11.6262Z" fill="#309EAD"/>
</svg>
