<svg width="48" height="48" viewBox="0 0 48 48" fill="none" xmlns="http://www.w3.org/2000/svg">
    <rect x="0.5" y="0.5" width="47" height="47" rx="23.5" stroke="#309EAD"/>
    <g clip-path="url(#clip0_579_1533)">
        <path d="M33.379 28.913C32.633 28.2837 32.0336 27.4989 31.6226 26.6136C31.2117 25.7284 30.9992 24.764 31 23.788V21C31 17.481 28.386 14.568 25 14.08V13C25 12.7348 24.8946 12.4804 24.7071 12.2929C24.5196 12.1054 24.2652 12 24 12C23.7348 12 23.4804 12.1054 23.2929 12.2929C23.1053 12.4804 23 12.7348 23 13V14.08C19.613 14.568 17 17.481 17 21V23.788C17.0004 24.766 16.7868 25.7322 16.3743 26.6189C15.9618 27.5056 15.3603 28.2913 14.612 28.921C14.3415 29.1541 14.1488 29.4643 14.0595 29.81C13.9703 30.1557 13.9888 30.5205 14.1126 30.8554C14.2363 31.1903 14.4595 31.4794 14.7521 31.684C15.0448 31.8885 15.3929 31.9988 15.75 32H32.25C33.215 32 34 31.215 34 30.25C34 29.738 33.777 29.254 33.379 28.913ZM24 36C24.864 35.9988 25.7012 35.6998 26.3705 35.1533C27.0397 34.6068 27.5001 33.8463 27.674 33H20.326C20.4999 33.8463 20.9603 34.6068 21.6295 35.1533C22.2988 35.6998 23.136 35.9988 24 36Z" fill="#309EAD"/>
    </g>
    <defs>
        <clipPath id="clip0_579_1533">
            <rect width="24" height="24" fill="white" transform="translate(12 12)"/>
        </clipPath>
    </defs>
</svg>
