<svg width="25" height="25" viewBox="0 0 25 25" fill="none" xmlns="http://www.w3.org/2000/svg">
    <path d="M16.631 3.68505C13.9011 3.22738 11.0993 3.22738 8.3693 3.68505C7.37196 3.85225 6.5777 4.61792 6.37772 5.61069C5.4616 10.1588 5.41162 14.8389 6.23039 19.4055L6.56374 21.2647C6.66652 21.838 7.36543 22.0671 7.78769 21.666L11.8114 17.8435C12.1974 17.4768 12.8029 17.4768 13.1889 17.8435L17.2126 21.666C17.6349 22.0671 18.3338 21.838 18.4366 21.2647L18.7699 19.4055C19.5887 14.8389 19.5387 10.1588 18.6226 5.61069C18.4226 4.61792 17.6284 3.85225 16.631 3.68505Z" fill="#929292"/>
</svg>
