<svg width="64" height="65" viewBox="0 0 64 65" fill="none" xmlns="http://www.w3.org/2000/svg">
    <rect y="0.5" width="64" height="64" rx="12" fill="#BFE1E6"/>
    <g clip-path="url(#clip0_463_815)">
        <path d="M32 48.5C40.8366 48.5 48 41.3366 48 32.5C48 23.6634 40.8366 16.5 32 16.5C23.1634 16.5 16 23.6634 16 32.5C16 41.3366 23.1634 48.5 32 48.5Z" fill="#309EAD"/>
        <path d="M41.9218 39.1163C41.9811 39.3567 41.9829 39.6076 41.9272 39.8489C41.8715 40.0901 41.7598 40.3149 41.6012 40.505C40.4281 41.9122 38.96 43.0443 37.3008 43.8212C35.6417 44.5982 33.832 45.0009 31.9999 45.0009C30.1679 45.0009 28.3582 44.5982 26.6991 43.8212C25.0399 43.0443 23.5718 41.9122 22.3987 40.505C22.2401 40.3149 22.1284 40.0901 22.0727 39.8489C22.017 39.6076 22.0188 39.3567 22.0781 39.1163C22.6226 36.9069 23.8886 34.9424 25.6756 33.5338C25.9421 33.3248 26.2699 33.209 26.6085 33.2041C26.9472 33.1993 27.2781 33.3056 27.5506 33.5069C28.7381 34.39 30.2949 34.925 31.9974 34.925C33.6999 34.925 35.2562 34.39 36.4443 33.5069C36.7168 33.3056 37.0477 33.1993 37.3864 33.2041C37.725 33.209 38.0528 33.3248 38.3193 33.5338C40.1082 34.9416 41.376 36.9062 41.9218 39.1163Z" fill="white"/>
        <path d="M32 32.8612C35.1718 32.8612 37.7431 30.29 37.7431 27.1181C37.7431 23.9463 35.1718 21.375 32 21.375C28.8281 21.375 26.2568 23.9463 26.2568 27.1181C26.2568 30.29 28.8281 32.8612 32 32.8612Z" fill="white"/>
    </g>
    <defs>
        <clipPath id="clip0_463_815">
            <rect width="32" height="32" fill="white" transform="translate(16 16.5)"/>
        </clipPath>
    </defs>
</svg>
