<svg width="24" height="24" viewBox="0 0 24 24" fill="none" xmlns="http://www.w3.org/2000/svg">
    <g clip-path="url(#clip0_500_2972)">
        <path d="M12.0005 15.7158C8.64929 15.7158 5.92285 18.4423 5.92285 21.7934C5.92285 21.9874 5.93237 22.179 5.95032 22.3682C7.76654 23.4322 9.83963 24.0002 12.0005 24.0002C14.1613 24.0002 16.2344 23.4322 18.0506 22.3682C18.0686 22.1789 18.0781 21.9874 18.0781 21.7934C18.0781 18.4423 15.3517 15.7158 12.0005 15.7158Z" fill="#B5B5B5"/>
        <path d="M20.4853 3.51469C18.2188 1.24828 15.2055 0 12 0C8.79455 0 5.78119 1.24823 3.51469 3.51469C1.24828 5.78119 0 8.79455 0 12C0 15.2053 1.24823 18.2188 3.51469 20.4853C3.83505 20.8055 4.17304 21.1075 4.52709 21.39C4.68441 18.4434 6.55387 15.9443 9.15619 14.8713C7.72575 13.9387 6.77822 12.325 6.77822 10.4938C6.77822 7.61442 9.12066 5.27198 12 5.27198C14.8793 5.27198 17.2218 7.61442 17.2218 10.4938C17.2218 12.325 16.2743 13.9387 14.8438 14.8713C17.4461 15.9442 19.3156 18.4435 19.4729 21.39C19.8269 21.1075 20.1649 20.8054 20.4853 20.4853C22.7517 18.2188 24 15.2053 24 12C24 8.79455 22.7518 5.78119 20.4853 3.51469Z" fill="#B5B5B5"/>
        <path d="M15.8156 10.4938C15.8156 8.38968 14.104 6.67822 12.0001 6.67822C9.89621 6.67822 8.18457 8.38986 8.18457 10.4938C8.18457 12.5976 9.89621 14.3093 12.0001 14.3093C14.104 14.3093 15.8156 12.5976 15.8156 10.4938Z" fill="#B5B5B5"/>
    </g>
    <defs>
        <clipPath id="clip0_500_2972">
            <rect width="24" height="24" fill="white"/>
        </clipPath>
    </defs>
</svg>
