<svg width="24" height="24" viewBox="0 0 24 24" fill="none" xmlns="http://www.w3.org/2000/svg">
    <path d="M8.75012 11.9996C8.75012 10.2047 10.2052 8.74964 12.0001 8.74964C13.795 8.74964 15.2501 10.2047 15.2501 11.9996C15.2501 13.7946 13.795 15.2496 12.0001 15.2496C10.2052 15.2496 8.75012 13.7946 8.75012 11.9996Z" fill="#929292"/>
    <path fill-rule="evenodd" clip-rule="evenodd" d="M11.4608 1.83816C11.7557 1.53311 12.2446 1.53311 12.5394 1.83816L15.1117 4.49964H18.7501C19.1643 4.49964 19.5001 4.83543 19.5001 5.24964V8.88804L22.1616 11.4604C22.4667 11.7552 22.4667 12.2441 22.1616 12.5389L19.5001 15.1112V18.7496C19.5001 19.1639 19.1643 19.4996 18.7501 19.4996H15.1117L12.5394 22.1611C12.2446 22.4662 11.7557 22.4662 11.4608 22.1611L8.88852 19.4996H5.25013C4.83592 19.4996 4.50013 19.1639 4.50013 18.7496V15.1113L1.83864 12.5389C1.5336 12.2441 1.5336 11.7552 1.83864 11.4604L4.50013 8.88803V5.24964C4.50013 4.83543 4.83592 4.49964 5.25013 4.49964H8.88852L11.4608 1.83816ZM12.0001 7.24964C9.37677 7.24964 7.25012 9.37629 7.25012 11.9996C7.25012 14.623 9.37677 16.7496 12.0001 16.7496C14.6235 16.7496 16.7501 14.623 16.7501 11.9996C16.7501 9.37629 14.6235 7.24964 12.0001 7.24964Z" fill="#929292"/>
</svg>
