<svg width="20" height="20" viewBox="0 0 20 20" fill="none" xmlns="http://www.w3.org/2000/svg">
    <path d="M10.3289 11.2294L11.9263 12.1519C10.9727 14.2642 10.8724 16.6634 11.6465 18.8479C11.1034 18.9495 10.552 19.0004 9.99955 19C8.72431 19.0021 7.46333 18.732 6.30073 18.208L10.3289 11.2294ZM13.4941 13.0582L17.3045 15.2578C16.3119 16.6355 14.951 17.7055 13.378 18.3448C12.7789 16.727 12.7814 14.9478 13.3852 13.3318L13.4941 13.0582ZM7.17369 9.40779L8.77111 10.3294L4.74291 17.3044C3.25286 16.2311 2.12573 14.7288 1.51207 12.9979C3.68665 12.5963 5.6366 11.4064 6.9883 9.65619L7.17369 9.40779ZM18.9145 8.75439C18.9712 9.16209 19 9.57789 19 9.99999C19.002 11.2753 18.732 12.5364 18.208 13.699L14.3958 11.4985C15.4691 10.0818 17.0293 9.11313 18.775 8.77959L18.9145 8.75439ZM1.79286 6.3019L5.60417 8.50239C4.50117 9.95805 2.88564 10.9394 1.0855 11.2474C1.02851 10.834 0.999946 10.4172 1 9.99999C1 8.68149 1.28349 7.4296 1.79196 6.301L1.79286 6.3019ZM15.2571 2.69471C16.7471 3.76797 17.8742 5.27037 18.4879 7.0012C16.313 7.4036 14.3628 8.5941 13.0108 10.3447L12.8263 10.5931L11.2289 9.67059L15.2571 2.69561V2.69471ZM9.99955 1.00001C11.318 1.00001 12.5698 1.28351 13.6984 1.79201L9.67016 8.77059L8.07274 7.849C9.02687 5.73618 9.12713 3.33626 8.35263 1.15121C8.89575 1.04997 9.44706 0.99934 9.99955 1.00001ZM6.62202 1.65701C7.22022 3.27502 7.21703 5.05414 6.61302 6.67L6.50502 6.9427L2.69461 4.7422C3.64878 3.41828 4.94379 2.37762 6.44202 1.73081L6.62202 1.65701Z" fill="white"/>
</svg>