<svg width="25" height="25" viewBox="0 0 25 25" fill="none" xmlns="http://www.w3.org/2000/svg">
    <path d="M4.78547 8.84374C3.61311 9.15832 2.75 10.2284 2.75 11.5V14.5C2.75 16.0188 3.98122 17.25 5.5 17.25H8C8.41421 17.25 8.75 16.9142 8.75 16.5V9.5C8.75 9.08579 8.41421 8.75 8 8.75H6.31483C6.74399 6.28002 9.25862 4.25 12.5 4.25C15.7414 4.25 18.256 6.28002 18.6852 8.75H17C16.5858 8.75 16.25 9.08579 16.25 9.5V16.5C16.25 16.9142 16.5858 17.25 17 17.25H18.663C18.3244 18.6834 17.0368 19.75 15.5 19.75H14.3546C14.0579 19.017 13.3393 18.5 12.5 18.5C11.3954 18.5 10.5 19.3954 10.5 20.5C10.5 21.6046 11.3954 22.5 12.5 22.5C13.3393 22.5 14.0579 21.983 14.3546 21.25H15.5C17.8998 21.25 19.8839 19.4704 20.2047 17.1589C21.382 16.8477 22.25 15.7752 22.25 14.5V11.5C22.25 10.2284 21.3869 9.15832 20.2145 8.84375C19.8331 5.33959 16.4262 2.75 12.5 2.75C8.5738 2.75 5.16693 5.33959 4.78547 8.84374Z" fill="#B5B5B5"/>
</svg>
