<svg width="25" height="25" viewBox="0 0 25 25" fill="none" xmlns="http://www.w3.org/2000/svg">
    <path fill-rule="evenodd" clip-rule="evenodd" d="M10.2294 4.49317C11.3214 2.8955 13.6782 2.89551 14.7702 4.49317L15.2021 5.12512C17.9081 9.08434 20.2331 13.2909 22.1458 17.6886L22.236 17.896C22.9101 19.4458 21.8917 21.2055 20.2122 21.3932C15.0865 21.9661 9.91304 21.9661 4.78741 21.3932C3.10787 21.2055 2.0895 19.4458 2.76356 17.896L2.85377 17.6886C4.7665 13.291 7.09147 9.08433 9.79751 5.12512L10.2294 4.49317ZM13.4998 9.50054C13.4998 10.0528 13.0521 10.5005 12.4998 10.5005C11.9475 10.5005 11.4998 10.0528 11.4998 9.50054C11.4998 8.94825 11.9475 8.50054 12.4998 8.50054C13.0521 8.50054 13.4998 8.94825 13.4998 9.50054ZM12.4998 12.2505C12.914 12.2505 13.2498 12.5863 13.2498 13.0005V18.0005C13.2498 18.4148 12.914 18.7505 12.4998 18.7505C12.0856 18.7505 11.7498 18.4148 11.7498 18.0005V13.0005C11.7498 12.5863 12.0856 12.2505 12.4998 12.2505Z" fill="#929292"/>
</svg>
