<svg width="32" height="32" viewBox="0 0 32 32" fill="none" xmlns="http://www.w3.org/2000/svg">
    <rect width="32" height="32" rx="16" fill="#EAF5F7"/>
    <path d="M24.3334 12.3V19.7C24.3333 19.8182 24.2998 19.934 24.2368 20.0341C24.1738 20.1341 24.0838 20.2143 23.9772 20.2654C23.8706 20.3165 23.7517 20.3365 23.6343 20.323C23.5168 20.3095 23.4056 20.2631 23.3134 20.1892L21.51 18.7417C21.4809 18.7182 21.4573 18.6885 21.4412 18.6548C21.425 18.621 21.4167 18.5841 21.4167 18.5467V13.4534C21.4167 13.4159 21.425 13.379 21.4412 13.3452C21.4573 13.3115 21.4809 13.2818 21.51 13.2584L23.3134 11.8109C23.4056 11.7369 23.5168 11.6905 23.6343 11.677C23.7517 11.6636 23.8706 11.6835 23.9772 11.7346C24.0838 11.7858 24.1738 11.866 24.2368 11.966C24.2998 12.066 24.3333 12.1818 24.3334 12.3ZM20.1667 19.3334V12.6667C20.2151 12.3271 20.1839 11.9809 20.0754 11.6555C19.9669 11.3301 19.7841 11.0344 19.5416 10.7918C19.299 10.5493 19.0033 10.3665 18.6779 10.258C18.3525 10.1495 18.0063 10.1182 17.6667 10.1667H10.1667C9.8271 10.1182 9.4809 10.1495 9.15548 10.258C8.83007 10.3665 8.53438 10.5493 8.29183 10.7918C8.04927 11.0344 7.86651 11.3301 7.758 11.6555C7.6495 11.9809 7.61824 12.3271 7.66669 12.6667V19.3334C7.61824 19.6729 7.6495 20.0191 7.758 20.3446C7.86651 20.67 8.04927 20.9657 8.29183 21.2082C8.53438 21.4508 8.83007 21.6335 9.15548 21.742C9.4809 21.8505 9.8271 21.8818 10.1667 21.8334H17.6667C18.0063 21.8818 18.3525 21.8505 18.6779 21.742C19.0033 21.6335 19.299 21.4508 19.5416 21.2082C19.7841 20.9657 19.9669 20.67 20.0754 20.3446C20.1839 20.0191 20.2151 19.6729 20.1667 19.3334Z" fill="#309EAD"/>
</svg>
